<svg id="Capa_1" enable-background="new 0 0 512 512" height="512" viewBox="0 0 512 512" width="512" xmlns="http://www.w3.org/2000/svg"><g><g><path d="m502 357.995h-16.506c-4.485-44.053-38.272-79.562-81.502-86.688-26.83-28.836-64.534-45.312-103.992-45.312-23.029 0-45.704 5.605-65.953 16.233-16.958-8.926-35.647-14.338-55.117-15.817-.589-2.453-.898-4.992-.898-7.579 0-8.598 3.348-16.682 9.428-22.761 9.857-9.857 15.286-22.963 15.286-36.904s-5.429-27.046-15.286-36.903c-1.92-1.92-3.544-4.027-4.876-6.259h22.088c15.806 0 29.318-9.998 34.554-24h48.168c5.522 0 10-4.477 10-10s-4.478-10-10-10h-45.844v-28h236.45c7.72 0 14 6.28 14 14s-6.28 14-14 14h-100.606c-5.522 0-10 4.477-10 10s4.478 10 10 10h100.606c18.748 0 34-15.252 34-34s-15.252-34-34-34h-238.775c-5.236-14.002-18.747-24-34.554-24h-136.835c-5.523 0-10 4.477-10 10s4.477 10 10 10h19.413c4.431 5.64 6.842 12.549 6.842 19.833 0 2.795-.36 5.533-1.046 8.167h-29.045c-5.523 0-10 4.477-10 10s4.477 10 10 10h15.965c-6.296 8.305-9.773 18.072-10.434 28h-1.695c-5.523 0-10 4.477-10 10s4.477 10 10 10h4.238c2.474 7.461 6.662 14.474 12.589 20.401 6.08 6.08 9.428 14.164 9.428 22.762s-3.348 16.682-9.428 22.761c-9.857 9.857-15.286 22.963-15.286 36.904 0 13.202 4.876 25.652 13.764 35.306-33.292 24.785-53.91 62.481-56.784 103.856h-16.357c-5.523 0-10 4.477-10 10 0 79.402 64.598 144 144 144h224c79.402 0 144-64.598 144-144 0-5.523-4.478-10-10-10zm-36.663 0h-24.28c-4.705-25.012-26.699-44-53.057-44s-48.352 18.988-53.057 44h-24.28c4.927-38.301 37.717-68 77.337-68s72.41 29.7 77.337 68zm-44.84 0h-64.994c4.281-13.882 17.228-24 32.497-24s28.217 10.118 32.497 24zm-235.621 0c-5.113-6.525-7.352-14.58-6.716-22.449 10.666 3.349 19.037 11.83 22.324 22.449zm36.181 0c-3.585-18.947-17.153-34.571-35.138-40.928.493-.567 1.001-1.126 1.54-1.666 5.495-5.496 9.493-11.926 12.02-18.78 24.794 10.984 42.336 34.45 45.861 61.374zm44.424 0c-1.799-17.916-8.416-34.792-19.442-49.286-11.108-14.601-26.314-25.91-43.37-32.39-.403-9.736-3.518-19.373-9.329-27.688 12.435 2.618 24.319 7.156 35.287 13.453.217.138.439.263.665.383 9.501 5.535 18.307 12.39 26.167 20.47 19.935 20.494 31.846 46.844 34.13 75.059h-24.108zm21.881-66.975c4.156-.676 8.376-1.025 12.638-1.025 8.199 0 16.324 1.299 24.055 3.797-8.858 7.644-16.336 16.844-22.009 27.171-3.679-10.504-8.602-20.545-14.684-29.943zm12.638-45.025c26.916 0 52.88 8.929 73.976 25.008-10.627 1.53-20.707 4.769-29.954 9.431-13.589-6.834-28.708-10.439-44.023-10.439-8.851 0-17.567 1.193-26.006 3.511-1.366-1.529-2.761-3.038-4.199-4.516-4.955-5.094-10.234-9.768-15.788-14.009 14.526-5.902 30.16-8.986 45.994-8.986zm-126.683-64.066c-9.857 9.857-15.286 22.963-15.286 36.904s5.429 27.046 15.286 36.903c12.551 12.551 12.551 32.973 0 45.523-15.311 15.312-19.097 37.848-11.366 56.736h-21.402c-9.889-12.62-9.034-30.977 2.583-42.594 20.349-20.349 20.349-53.458 0-73.807-6.08-6.08-9.428-14.164-9.428-22.762s3.348-16.682 9.428-22.761c9.857-9.857 15.286-22.963 15.286-36.904s-5.429-27.046-15.286-36.903c-12.551-12.551-12.551-32.973 0-45.523 15.312-15.312 19.097-37.847 11.366-56.736h21.405c4.431 5.64 6.842 12.549 6.842 19.833 0 8.598-3.348 16.682-9.428 22.761-20.349 20.349-20.349 53.458 0 73.807 6.08 6.08 9.428 14.164 9.428 22.762s-3.348 16.681-9.428 22.761zm48.233-145.045v42.242c0 9.307-7.572 16.879-16.879 16.879h-26.429c.763-7.041 3.831-13.878 9.217-19.264 15.312-15.312 19.097-37.847 11.366-56.736h5.846c9.308 0 16.879 7.572 16.879 16.879zm-122.745 159.187c9.857-9.857 15.286-22.963 15.286-36.904s-5.429-27.046-15.286-36.903c-12.551-12.551-12.551-32.973 0-45.523 15.312-15.312 19.097-37.847 11.366-56.736h21.405c4.431 5.64 6.842 12.549 6.842 19.833 0 8.598-3.348 16.682-9.428 22.761-20.349 20.349-20.349 53.458 0 73.807 6.08 6.08 9.428 14.164 9.428 22.762s-3.348 16.682-9.428 22.761c-9.857 9.857-15.286 22.963-15.286 36.904s5.429 27.046 15.286 36.903c12.551 12.551 12.551 32.973 0 45.523-15.312 15.312-19.097 37.847-11.366 56.736h-21.402c-9.889-12.62-9.034-30.977 2.583-42.594 20.349-20.349 20.349-53.458 0-73.807-6.08-6.08-9.428-14.164-9.428-22.762s3.348-16.681 9.428-22.761zm-5.498 75.45c2.288 10.38-.587 21.68-8.645 29.737-15.312 15.312-19.097 37.847-11.366 56.736h-26.878c2.774-34.247 19.706-65.456 46.889-86.473zm274.693 220.474h-224c-65.006 0-118.49-50.287-123.601-114h471.201c-5.111 63.713-58.594 114-123.6 114z"/><circle cx="332.395" cy="82.005" r="10"/></g></g></svg>